<svg width="231" height="240" viewBox="0 0 231 240" fill="none" xmlns="http://www.w3.org/2000/svg">
<path d="M112.516 103.483V68.5776" stroke="#263238" stroke-linecap="round" stroke-linejoin="round"/>
<path d="M134.442 105.538L134.396 95.0928L136.581 101.813C136.581 101.813 134.571 104.568 134.442 105.538Z" fill="#263238" stroke="#263238" stroke-linecap="round" stroke-linejoin="round"/>
<path d="M136.59 101.818C136.59 101.818 133.55 104.736 134.742 106.56C135.934 108.384 138.369 106.68 143.285 106.68C148.2 106.68 152.063 110.208 152.063 110.208V93.1824C152.063 93.1824 151.827 91.1184 148.672 89.8992C145.516 88.68 137.667 89.6592 136.262 87.3456C134.858 85.032 135.8 81.144 135.8 81.144C135.8 81.144 133.227 86.496 134.16 90.6288C135.093 94.7616 136.59 101.818 136.59 101.818Z" fill="white" stroke="#263238" stroke-linecap="round" stroke-linejoin="round"/>
<path d="M112.599 69.7632C114.019 71.1709 115.855 72.0401 117.81 72.2304C125.664 73.1616 127.138 72.5136 130.88 73.3632C134.622 74.2128 136.613 77.6208 136.613 77.6208V101.818C136.613 101.818 135.445 98.1696 130.529 97.68C125.613 97.1904 121.169 97.56 117.186 97.3152C113.204 97.0704 112.622 96.3552 112.622 96.3552L112.599 69.7632Z" fill="white" stroke="#263238" stroke-linecap="round" stroke-linejoin="round"/>
<path d="M136.082 95.5775V88.2144C135.846 87.864 135.597 87.5135 135.334 87.1775L133.735 85.2096C133.388 84.7637 133.065 84.2973 132.77 83.8128C132.483 83.3249 132.337 82.7618 132.349 82.1903C132.337 81.8812 132.436 81.5785 132.626 81.3408C132.731 81.2311 132.865 81.1565 133.01 81.1266C133.156 81.0966 133.307 81.1127 133.444 81.1728C133.759 81.2493 134.034 81.4464 134.216 81.7247C134.396 82.0328 134.514 82.3758 134.562 82.7328C134.63 83.1791 134.669 83.6297 134.678 84.0816L136.064 84.3263V80.3952C135.957 80.2656 135.837 80.136 135.712 80.0112C135.217 79.5466 134.637 79.1893 134.008 78.96V77.1791L133.084 76.8719V78.6575C131.929 78.3695 131.005 78.4623 130.312 78.9359C129.619 79.4095 129.275 80.2752 129.281 81.5328C129.273 82.1387 129.36 82.7419 129.54 83.3184C129.712 83.8511 129.948 84.3591 130.242 84.8303C130.553 85.3279 130.887 85.8085 131.245 86.2703L132.885 88.2719C133.354 88.8288 133.771 89.4317 134.128 90.0719C134.434 90.639 134.594 91.2792 134.59 91.9296C134.603 92.2299 134.526 92.5269 134.368 92.7791C134.22 92.9999 133.948 93.0431 133.546 92.9088C133.209 92.8038 132.913 92.5903 132.7 92.2991C132.457 91.9538 132.29 91.5573 132.211 91.1375C132.088 90.5667 132.02 89.9847 132.007 89.4L129.291 88.9872C129.277 90.413 129.643 91.815 130.349 93.0384C131.062 94.1282 132.106 94.9378 133.315 95.3375V97.2L134.239 97.5024V95.6208C134.845 95.7871 135.484 95.7721 136.082 95.5775Z" fill="#A8DADC"/>
<path d="M187.817 226.68L152.072 168.106L142.25 172.901L112.515 103.483L77.5929 166.843L72.1367 158.261L30.7415 226.68H187.817Z" fill="#A8DADC"/>
<path d="M28.8196 229.022L72.1367 158.261L77.5929 166.843L112.515 103.483L142.25 172.901L152.072 168.106L189.549 229.522" stroke="#263238" stroke-linecap="round" stroke-linejoin="round"/>
<path d="M72.1367 158.261L76.5165 170.736L74.3174 182.818L77.7731 174.979L79.9722 178.901L75.2598 220.368L85.0034 181.838L80.6006 173.347L80.9147 161.918L77.5929 166.843L72.1367 158.261Z" fill="#263238" stroke="#263238" stroke-linecap="round" stroke-linejoin="round"/>
<path d="M119.884 120.778L133.717 178.574L129.942 179.554L125.544 166.819L123.973 171.062L126.172 192.288L123.345 194.899L125.23 226.57L142.513 202.738L152.178 222.749L171.993 212.323L185.632 222.898L152.072 168.106L142.25 172.901L119.884 120.778Z" fill="#263238" stroke="#263238" stroke-linecap="round" stroke-linejoin="round"/>
<path d="M125.535 120.451C126.65 115.588 123.758 110.706 119.077 109.548C114.395 108.39 109.697 111.395 108.582 116.258C107.468 121.122 110.36 126.004 115.041 127.162C119.722 128.319 124.421 125.315 125.535 120.451Z" stroke="#263238" stroke-linecap="round" stroke-linejoin="round"/>
<path d="M68.0619 118.363H108.348" stroke="#263238" stroke-linecap="round" stroke-linejoin="round"/>
<path d="M28.4684 118.363H68.0618" stroke="#263238" stroke-width="5" stroke-linecap="round" stroke-linejoin="round"/>
<path d="M75.8882 115.55V121.382" stroke="#263238" stroke-linecap="round" stroke-linejoin="round"/>
<path d="M80.231 115.55V121.382" stroke="#263238" stroke-linecap="round" stroke-linejoin="round"/>
<path d="M84.5737 115.55V121.382" stroke="#263238" stroke-linecap="round" stroke-linejoin="round"/>
<path d="M88.9165 115.55V121.382" stroke="#263238" stroke-linecap="round" stroke-linejoin="round"/>
<path d="M93.2593 115.55V121.382" stroke="#263238" stroke-linecap="round" stroke-linejoin="round"/>
<path d="M97.5975 115.55V121.382" stroke="#263238" stroke-linecap="round" stroke-linejoin="round"/>
<path d="M117.062 67.4544V109.31" stroke="#263238" stroke-linecap="round" stroke-linejoin="round"/>
<path d="M117.062 26.3184V67.4544" stroke="#263238" stroke-width="5" stroke-linecap="round" stroke-linejoin="round"/>
<path d="M119.769 75.5856H114.156" stroke="#263238" stroke-linecap="round" stroke-linejoin="round"/>
<path d="M119.769 80.0976H114.156" stroke="#263238" stroke-linecap="round" stroke-linejoin="round"/>
<path d="M119.769 84.6096H114.156" stroke="#263238" stroke-linecap="round" stroke-linejoin="round"/>
<path d="M119.769 89.1216H114.156" stroke="#263238" stroke-linecap="round" stroke-linejoin="round"/>
<path d="M119.769 93.6336H114.156" stroke="#263238" stroke-linecap="round" stroke-linejoin="round"/>
<path d="M119.769 98.1456H114.156" stroke="#263238" stroke-linecap="round" stroke-linejoin="round"/>
<path d="M166.061 118.363H125.775" stroke="#263238" stroke-linecap="round" stroke-linejoin="round"/>
<path d="M205.655 118.363H166.061" stroke="#263238" stroke-width="5" stroke-linecap="round" stroke-linejoin="round"/>
<path d="M158.235 121.181V115.344" stroke="#263238" stroke-linecap="round" stroke-linejoin="round"/>
<path d="M153.892 121.181V115.344" stroke="#263238" stroke-linecap="round" stroke-linejoin="round"/>
<path d="M149.549 121.181V115.344" stroke="#263238" stroke-linecap="round" stroke-linejoin="round"/>
<path d="M145.207 121.181V115.344" stroke="#263238" stroke-linecap="round" stroke-linejoin="round"/>
<path d="M140.864 121.181V115.344" stroke="#263238" stroke-linecap="round" stroke-linejoin="round"/>
<path d="M136.521 121.181V115.344" stroke="#263238" stroke-linecap="round" stroke-linejoin="round"/>
<path d="M117.062 169.272V127.416" stroke="#263238" stroke-linecap="round" stroke-linejoin="round"/>
<path d="M117.062 210.408V169.272" stroke="#263238" stroke-width="5" stroke-linecap="round" stroke-linejoin="round"/>
<path d="M114.35 161.141H119.968" stroke="#263238" stroke-linecap="round" stroke-linejoin="round"/>
<path d="M114.35 156.629H119.968" stroke="#263238" stroke-linecap="round" stroke-linejoin="round"/>
<path d="M114.35 152.117H119.968" stroke="#263238" stroke-linecap="round" stroke-linejoin="round"/>
<path d="M114.35 147.605H119.968" stroke="#263238" stroke-linecap="round" stroke-linejoin="round"/>
<path d="M114.35 143.093H119.968" stroke="#263238" stroke-linecap="round" stroke-linejoin="round"/>
<path d="M114.35 138.586H119.968" stroke="#263238" stroke-linecap="round" stroke-linejoin="round"/>
<path d="M117.062 17.8704C63.6405 17.8704 20.328 62.88 20.328 118.363C20.328 173.846 63.6405 218.88 117.062 218.88C170.483 218.88 213.786 173.89 213.786 118.387C213.786 62.8848 170.478 17.8704 117.062 17.8704ZM117.062 204.475C100.669 204.475 84.6443 199.425 71.0143 189.963C57.3843 180.501 46.761 167.052 40.4878 151.317C34.2146 135.582 32.5733 118.268 35.7713 101.564C38.9694 84.8595 46.8632 69.5158 58.4546 57.4728C70.0459 45.4299 84.8142 37.2285 100.892 33.9058C116.97 30.5832 133.635 32.2885 148.779 38.8061C163.924 45.3237 176.869 56.3609 185.976 70.522C195.083 84.683 199.944 101.332 199.944 118.363C199.945 129.672 197.802 140.87 193.637 151.318C189.472 161.766 183.367 171.26 175.67 179.257C167.974 187.253 158.837 193.597 148.78 197.925C138.724 202.253 127.946 204.48 117.062 204.48V204.475Z" fill="#263238"/>
</svg>
